<mxfile host="app.diagrams.net" modified="2022-11-26T12:16:43.200Z" agent="5.0 (Windows NT 10.0; Win64; x64) AppleWebKit/537.36 (KHTML, like Gecko) Chrome/107.0.0.0 Safari/537.36 Edg/107.0.1418.56" etag="hCiNtQcdhUobI34qXU6H" version="20.5.3" type="github">
  <diagram id="Mg3wdfiAHZ6KWwbeiDB0" name="第 1 页">
    <mxGraphModel dx="1468" dy="783" grid="1" gridSize="10" guides="1" tooltips="1" connect="1" arrows="1" fold="1" page="1" pageScale="1" pageWidth="827" pageHeight="1169" math="0" shadow="0">
      <root>
        <mxCell id="0" />
        <mxCell id="1" parent="0" />
        <mxCell id="rdXyCPHhZ7sFIBMpcze3-28" style="edgeStyle=orthogonalEdgeStyle;rounded=0;orthogonalLoop=1;jettySize=auto;html=1;exitX=1;exitY=0.5;exitDx=0;exitDy=0;entryX=0;entryY=0.5;entryDx=0;entryDy=0;fontSize=14;" parent="1" source="rdXyCPHhZ7sFIBMpcze3-2" target="rdXyCPHhZ7sFIBMpcze3-10" edge="1">
          <mxGeometry relative="1" as="geometry">
            <Array as="points">
              <mxPoint x="210" y="240" />
              <mxPoint x="210" y="400" />
            </Array>
          </mxGeometry>
        </mxCell>
        <mxCell id="rdXyCPHhZ7sFIBMpcze3-2" value="&lt;font style=&quot;font-size: 12px;&quot;&gt;极速版&lt;/font&gt;" style="ellipse;whiteSpace=wrap;html=1;aspect=fixed;" parent="1" vertex="1">
          <mxGeometry x="70" y="200" width="80" height="80" as="geometry" />
        </mxCell>
        <mxCell id="rdXyCPHhZ7sFIBMpcze3-3" value="" style="edgeStyle=orthogonalEdgeStyle;rounded=0;orthogonalLoop=1;jettySize=auto;html=1;" parent="1" source="rdXyCPHhZ7sFIBMpcze3-4" target="rdXyCPHhZ7sFIBMpcze3-10" edge="1">
          <mxGeometry relative="1" as="geometry" />
        </mxCell>
        <mxCell id="rdXyCPHhZ7sFIBMpcze3-4" value="&lt;font style=&quot;font-size: 12px;&quot;&gt;主端&lt;/font&gt;" style="ellipse;whiteSpace=wrap;html=1;aspect=fixed;" parent="1" vertex="1">
          <mxGeometry x="70" y="360" width="80" height="80" as="geometry" />
        </mxCell>
        <mxCell id="rdXyCPHhZ7sFIBMpcze3-29" style="edgeStyle=orthogonalEdgeStyle;rounded=0;orthogonalLoop=1;jettySize=auto;html=1;exitX=1;exitY=0.5;exitDx=0;exitDy=0;entryX=0;entryY=0.5;entryDx=0;entryDy=0;fontSize=14;" parent="1" source="rdXyCPHhZ7sFIBMpcze3-6" target="rdXyCPHhZ7sFIBMpcze3-10" edge="1">
          <mxGeometry relative="1" as="geometry">
            <Array as="points">
              <mxPoint x="210" y="550" />
              <mxPoint x="210" y="400" />
            </Array>
          </mxGeometry>
        </mxCell>
        <mxCell id="rdXyCPHhZ7sFIBMpcze3-6" value="&lt;font style=&quot;font-size: 12px;&quot;&gt;浏览器&lt;/font&gt;" style="ellipse;whiteSpace=wrap;html=1;aspect=fixed;" parent="1" vertex="1">
          <mxGeometry x="70" y="510" width="80" height="80" as="geometry" />
        </mxCell>
        <mxCell id="rdXyCPHhZ7sFIBMpcze3-9" style="edgeStyle=orthogonalEdgeStyle;rounded=0;orthogonalLoop=1;jettySize=auto;html=1;exitX=1;exitY=0.5;exitDx=0;exitDy=0;entryX=0;entryY=0.5;entryDx=0;entryDy=0;" parent="1" source="rdXyCPHhZ7sFIBMpcze3-10" target="rdXyCPHhZ7sFIBMpcze3-17" edge="1">
          <mxGeometry relative="1" as="geometry" />
        </mxCell>
        <mxCell id="rdXyCPHhZ7sFIBMpcze3-10" value="&lt;font style=&quot;font-size: 12px;&quot;&gt;daily_api网关&lt;/font&gt;" style="rounded=0;whiteSpace=wrap;html=1;" parent="1" vertex="1">
          <mxGeometry x="250" y="370" width="120" height="60" as="geometry" />
        </mxCell>
        <mxCell id="rdXyCPHhZ7sFIBMpcze3-16" value="" style="edgeStyle=orthogonalEdgeStyle;rounded=0;orthogonalLoop=1;jettySize=auto;html=1;" parent="1" source="rdXyCPHhZ7sFIBMpcze3-17" target="rdXyCPHhZ7sFIBMpcze3-18" edge="1">
          <mxGeometry relative="1" as="geometry" />
        </mxCell>
        <mxCell id="rdXyCPHhZ7sFIBMpcze3-17" value="&lt;font style=&quot;font-size: 12px;&quot;&gt;任务映射&lt;/font&gt;" style="rounded=0;whiteSpace=wrap;html=1;" parent="1" vertex="1">
          <mxGeometry x="460" y="370" width="120" height="60" as="geometry" />
        </mxCell>
        <mxCell id="rdXyCPHhZ7sFIBMpcze3-18" value="&lt;font style=&quot;font-size: 12px;&quot;&gt;任务处理逻辑&lt;/font&gt;" style="rounded=0;whiteSpace=wrap;html=1;" parent="1" vertex="1">
          <mxGeometry x="460" y="460" width="120" height="60" as="geometry" />
        </mxCell>
        <mxCell id="rdXyCPHhZ7sFIBMpcze3-22" value="" style="endArrow=none;dashed=1;html=1;rounded=0;" parent="1" edge="1">
          <mxGeometry width="50" height="50" relative="1" as="geometry">
            <mxPoint x="180" y="610" as="sourcePoint" />
            <mxPoint x="180" y="160" as="targetPoint" />
          </mxGeometry>
        </mxCell>
        <mxCell id="rdXyCPHhZ7sFIBMpcze3-23" value="" style="endArrow=none;dashed=1;html=1;rounded=0;" parent="1" edge="1">
          <mxGeometry width="50" height="50" relative="1" as="geometry">
            <mxPoint x="410" y="610" as="sourcePoint" />
            <mxPoint x="410" y="160" as="targetPoint" />
          </mxGeometry>
        </mxCell>
        <mxCell id="rdXyCPHhZ7sFIBMpcze3-24" value="&lt;b&gt;&lt;font style=&quot;font-size: 14px;&quot;&gt;客户端&lt;/font&gt;&lt;/b&gt;" style="text;html=1;align=center;verticalAlign=middle;resizable=0;points=[];autosize=1;strokeColor=none;fillColor=none;" parent="1" vertex="1">
          <mxGeometry x="75" y="115" width="70" height="30" as="geometry" />
        </mxCell>
        <mxCell id="rdXyCPHhZ7sFIBMpcze3-25" value="&lt;b&gt;&lt;font style=&quot;font-size: 14px;&quot;&gt;网关层&lt;/font&gt;&lt;/b&gt;" style="text;html=1;align=center;verticalAlign=middle;resizable=0;points=[];autosize=1;strokeColor=none;fillColor=none;" parent="1" vertex="1">
          <mxGeometry x="275" y="115" width="70" height="30" as="geometry" />
        </mxCell>
        <mxCell id="rdXyCPHhZ7sFIBMpcze3-26" value="&lt;b style=&quot;&quot;&gt;&lt;font style=&quot;font-size: 14px;&quot;&gt;服务层&lt;/font&gt;&lt;/b&gt;" style="text;html=1;align=center;verticalAlign=middle;resizable=0;points=[];autosize=1;strokeColor=none;fillColor=none;" parent="1" vertex="1">
          <mxGeometry x="475" y="115" width="70" height="30" as="geometry" />
        </mxCell>
      </root>
    </mxGraphModel>
  </diagram>
</mxfile>
